<?xml version="1.0" encoding="UTF-8"?>
<svg width="580px" height="580px" viewBox="0 0 580 580" version="1.1" xmlns="http://www.w3.org/2000/svg" xmlns:xlink="http://www.w3.org/1999/xlink">
    <!-- Generator: Sketch 61 (89581) - https://sketch.com -->
    <title>Untitled</title>
    <desc>Created with Sketch.</desc>
    <g id="Page-1" stroke="none" stroke-width="1" fill="none" fill-rule="evenodd">
        <g id="pinterest-circular-logo-symbol" fill="#A79797" fill-rule="nonzero">
            <path d="M434.924,38.847 C390.561,12.954 342.107,0.01 289.574,0.01 C237.034,0.01 188.582,12.954 144.218,38.847 C99.854,64.741 64.725,99.87 38.837,144.228 C12.944,188.597 0,237.049 0,289.584 C0,348.152 15.955,401.316 47.883,449.07 C79.805,496.838 121.654,532.15 173.441,555.019 C172.431,528.123 174.066,505.882 178.343,488.287 L215.669,330.68 C209.384,318.366 206.244,303.035 206.244,284.681 C206.244,263.316 211.648,245.464 222.456,231.143 C233.258,216.81 246.459,209.643 262.046,209.643 C274.61,209.643 284.292,213.786 291.08,222.091 C297.867,230.383 301.264,240.818 301.264,253.383 C301.264,261.18 299.813,270.672 296.93,281.853 C294.035,293.04 290.265,305.983 285.62,320.69 C280.969,335.391 277.64,347.141 275.626,355.942 C272.101,371.272 274.996,384.405 284.298,395.342 C293.593,406.278 305.914,411.742 321.25,411.742 C348.148,411.742 370.205,396.791 387.426,366.877 C404.643,336.963 413.252,300.641 413.252,257.904 C413.252,224.979 402.635,198.203 381.393,177.592 C360.151,156.986 330.547,146.674 292.598,146.674 C250.112,146.674 215.736,160.316 189.475,187.58 C163.208,214.857 150.074,247.476 150.074,285.42 C150.074,308.045 156.488,327.029 169.303,342.361 C173.575,347.39 174.958,352.789 173.452,358.566 C172.944,360.078 171.941,363.847 170.435,369.875 C168.93,375.904 167.92,379.809 167.418,381.564 C165.404,389.613 160.631,392.128 153.085,389.105 C133.728,381.062 119.021,367.115 108.972,347.255 C98.917,327.401 93.892,304.403 93.892,278.259 C93.892,261.417 96.591,244.574 101.995,227.732 C107.399,210.89 115.814,194.617 127.259,178.9 C138.691,163.202 152.394,149.304 168.361,137.241 C184.322,125.172 203.741,115.503 226.617,108.201 C249.488,100.918 274.127,97.271 300.521,97.271 C336.214,97.271 368.265,105.19 396.667,121.022 C425.069,136.861 446.753,157.351 461.71,182.485 C476.661,207.62 484.146,234.511 484.146,263.177 C484.146,300.882 477.605,334.818 464.539,364.984 C451.467,395.15 432.99,418.839 409.109,436.056 C385.222,453.271 358.074,461.882 327.664,461.882 C312.328,461.882 298,458.302 284.678,451.134 C271.348,443.968 262.175,435.486 257.15,425.681 C245.84,470.167 239.053,496.699 236.789,505.236 C232.009,523.088 222.205,543.693 207.376,567.072 C234.273,575.115 261.672,579.134 289.574,579.134 C342.108,579.134 390.561,566.191 434.924,540.304 C479.287,514.409 514.416,479.281 540.311,434.911 C566.198,390.546 579.149,342.1 579.149,289.559 C579.149,237.019 566.198,188.574 540.311,144.204 C514.422,99.87 479.287,64.741 434.924,38.847 Z" id="Path"></path>
        </g>
    </g>
</svg>